<?xml version="1.0" standalone="no"?>
<!DOCTYPE svg PUBLIC "-//W3C//DTD SVG 20010904//EN"
 "http://www.w3.org/TR/2001/REC-SVG-20010904/DTD/svg10.dtd">
<svg version="1.0" xmlns="http://www.w3.org/2000/svg"
 width="597.000000pt" height="597.000000pt" viewBox="0 0 597.000000 597.000000"
 preserveAspectRatio="xMidYMid meet">

<g transform="translate(0.000000,597.000000) scale(0.100000,-0.100000)"
fill="#000000" stroke="none">
<path d="M2560 5575 c0 -9 12 -39 28 -68 34 -65 34 -128 1 -212 l-25 -60 -42
3 c-42 3 -43 2 -61 -40 -11 -24 -22 -66 -26 -93 -10 -78 -13 -79 -82 -45 -44
22 -87 34 -150 41 -110 14 -143 4 -143 -40 0 -31 120 -280 145 -301 13 -11 21
-40 12 -40 -1 0 -43 -14 -92 -31 -96 -34 -255 -110 -318 -153 -51 -35 -65 -33
-83 12 -54 131 -80 156 -169 156 -75 0 -138 -33 -175 -90 -16 -26 -33 -62 -36
-81 -6 -33 -17 -42 -29 -24 -3 5 -33 28 -66 50 -79 53 -135 57 -180 12 -24
-24 -29 -38 -29 -78 0 -26 -7 -88 -15 -138 -9 -49 -15 -123 -14 -162 2 -66 0
-75 -24 -99 -45 -45 -51 -86 -33 -203 9 -57 26 -121 36 -142 24 -47 17 -87
-40 -224 -21 -49 -47 -120 -59 -157 -23 -76 -61 -265 -61 -306 0 -48 -10 -53
-70 -37 -74 20 -181 19 -248 -2 -67 -21 -144 -87 -177 -153 -55 -108 -69 -294
-35 -460 16 -79 33 -123 104 -263 48 -92 86 -173 86 -180 0 -8 -24 -18 -58
-25 -31 -6 -68 -19 -81 -28 -48 -34 -51 -60 -51 -396 0 -346 6 -390 61 -501
48 -95 83 -133 156 -169 60 -29 73 -32 162 -32 85 0 125 7 344 63 261 65 417
98 605 127 l113 17 42 -31 c291 -217 531 -321 872 -378 134 -23 452 -23 585
-1 307 52 589 168 820 337 150 110 130 104 278 80 185 -32 439 -83 667 -135
417 -96 416 -95 504 -69 67 19 141 90 159 150 14 49 15 158 3 269 -12 102 -75
640 -101 855 -11 91 -33 296 -50 455 -38 359 -38 359 -64 398 -70 103 -216 94
-339 -22 -30 -28 -57 -51 -60 -51 -3 0 -8 19 -11 43 -3 23 -10 85 -16 137 -21
171 -70 351 -155 570 l-18 46 86 109 c120 154 150 205 155 271 4 43 -1 64 -21
106 -14 29 -28 69 -31 90 -4 21 -27 63 -57 102 -28 36 -49 73 -47 82 8 43 99
78 179 68 57 -8 101 13 119 56 13 32 8 84 -12 107 -21 26 -80 43 -148 43 -78
0 -118 -12 -177 -52 -23 -15 -46 -28 -51 -28 -23 0 -44 43 -53 109 -18 150
-89 221 -219 221 -111 0 -215 -60 -282 -164 -76 -117 -66 -137 56 -111 131 28
217 5 224 -59 5 -44 -15 -59 -68 -50 -107 18 -293 -3 -366 -42 -30 -16 -31
-16 -110 28 -145 83 -276 140 -419 183 -49 14 -103 31 -119 36 -16 5 -38 9
-50 9 -46 0 -48 13 -13 91 56 121 83 214 71 246 -12 35 -60 42 -115 17 -21 -9
-44 -14 -53 -11 -12 5 -12 11 1 49 32 94 29 179 -7 198 -16 8 -40 0 -131 -46
-61 -30 -115 -52 -119 -47 -3 4 -12 27 -19 49 -28 88 -63 138 -117 164 -27 14
-68 40 -89 58 -35 28 -47 32 -97 32 -35 0 -58 -4 -58 -11 0 -6 -9 -8 -20 -4
-11 4 -20 2 -20 -4 0 -6 3 -11 8 -11 15 0 71 -96 82 -140 6 -25 10 -83 8 -130
l-3 -85 -42 61 c-38 56 -41 65 -33 95 17 59 12 140 -11 179 -27 44 -36 50 -76
50 -23 0 -33 -5 -33 -15z m207 -37 c41 -25 56 -42 73 -81 13 -30 29 -51 42
-54 22 -7 20 -27 -14 -105 -21 -49 -38 -62 -38 -29 0 22 -39 181 -48 198 -4 6
-24 29 -44 52 -58 62 -51 67 29 19z m192 -136 c18 -35 18 -39 3 -49 -16 -10
-16 -12 1 -29 11 -12 17 -14 17 -6 0 7 5 10 11 6 8 -5 6 -10 -5 -16 -9 -5 -16
-18 -16 -30 0 -20 1 -20 19 -4 18 17 20 16 26 -3 3 -12 -1 -47 -10 -78 -17
-59 -91 -203 -104 -203 -4 0 -18 22 -30 48 -29 61 -25 135 13 242 15 41 26 86
25 100 -2 29 9 60 22 60 5 0 17 -17 28 -38z m-250 -182 c31 -52 41 -79 39
-103 l-3 -32 -29 43 c-16 23 -35 42 -42 42 -19 0 -18 -15 2 -31 20 -17 46 -67
42 -81 -4 -12 -98 106 -98 123 0 20 32 109 40 109 4 0 27 -32 49 -70z m581 57
c0 -8 -11 -51 -25 -97 -32 -107 -85 -189 -85 -131 0 10 10 25 22 33 13 9 18
19 14 27 -6 9 -14 7 -33 -11 -16 -14 -9 -1 15 32 23 30 39 56 36 59 -2 3 -24
-14 -47 -37 -24 -23 -46 -42 -50 -42 -4 0 -7 14 -7 30 0 23 11 41 40 70 23 22
49 40 58 40 9 0 23 9 30 20 14 23 32 27 32 7z m-476 -239 c5 -11 4 -18 -2 -18
-6 0 -17 -3 -25 -6 -16 -6 -16 31 1 186 l7 65 5 -105 c3 -58 9 -113 14 -122z
m-234 79 c0 -30 -10 -40 -26 -26 -10 8 -11 16 -3 30 14 26 29 24 29 -4z m70
-39 c0 -5 -9 -4 -20 2 -11 6 -20 18 -20 27 0 14 2 14 20 -2 11 -10 20 -22 20
-27z m-42 -29 l27 -21 -30 4 c-19 2 -31 9 -33 21 -4 22 4 22 36 -4z m-101 -11
c-3 -8 -6 -5 -6 6 -1 11 2 17 5 13 3 -3 4 -12 1 -19z m653 -28 c-1 -3 -45 -37
-98 -76 -144 -104 -184 -174 -198 -349 -5 -66 -10 -85 -22 -85 -13 0 -14 12
-8 79 13 156 52 233 169 328 39 32 82 70 95 85 19 23 63 36 62 18z m-295 -107
c-10 -55 -17 -31 -8 28 4 33 9 45 11 30 2 -13 1 -39 -3 -58z m-49 -93 l2 -95
-8 90 c-4 50 -13 103 -19 118 -17 43 -12 57 6 17 10 -22 17 -70 19 -130z m524
90 c0 -5 -7 -7 -15 -4 -8 4 -12 10 -9 15 6 11 24 2 24 -11z m-159 -14 c-27
-29 -88 -62 -97 -53 -14 13 7 39 48 57 60 27 77 26 49 -4z m1471 -4 c7 -7 -3
-14 -32 -22 -35 -10 -46 -9 -68 6 -25 16 -25 18 -7 25 25 11 94 4 107 -9z
m-152 -22 c-12 -17 -40 -40 -63 -51 -23 -12 -57 -32 -74 -46 -40 -29 -43 -18
-5 22 47 52 107 91 160 104 2 1 -6 -13 -18 -29z m-1740 -63 c0 -6 -13 2 -30
18 -16 16 -30 30 -30 33 0 2 14 -6 30 -18 17 -12 30 -26 30 -33z m1754 -22
c-10 -8 -26 -14 -34 -14 -11 0 -10 3 4 14 11 8 27 15 35 15 11 0 10 -4 -5 -15z
m-1508 -20 c-23 -17 -36 -19 -36 -6 0 11 18 19 40 20 11 0 10 -3 -4 -14z
m-311 -36 c9 -26 2 -33 -24 -24 -15 4 -21 15 -21 36 0 26 2 29 19 19 11 -5 23
-19 26 -31z m252 -69 c-5 -18 -6 -56 -3 -82 6 -39 4 -48 -9 -48 -12 0 -15 14
-15 71 0 38 6 91 12 117 l12 47 6 -35 c3 -19 2 -51 -3 -70z m1753 79 c0 -6 -4
-7 -10 -4 -5 3 -10 11 -10 16 0 6 5 7 10 4 6 -3 10 -11 10 -16z m-1928 -147
c3 -52 2 -90 -2 -85 -4 4 -10 55 -13 113 -3 58 -1 96 3 85 4 -11 10 -62 12
-113z m2303 58 c-11 -5 -32 -11 -46 -14 -15 -3 -51 -24 -80 -46 -58 -43 -69
-48 -69 -26 0 16 68 62 119 81 41 16 111 20 76 5z m-275 -37 c-1 -5 -7 -19
-15 -33 -8 -14 -14 -37 -15 -52 0 -30 -9 -35 -27 -17 -13 13 -3 46 24 84 18
24 33 32 33 18z m-3633 -79 c-3 -3 -12 -4 -19 -1 -8 3 -5 6 6 6 11 1 17 -2 13
-5z m2041 -49 c69 -38 112 -72 112 -88 0 -5 -25 5 -55 22 -30 17 -66 31 -79
31 -14 0 -28 5 -31 10 -3 6 -13 10 -21 10 -8 0 -31 12 -49 27 -29 24 -32 29
-17 34 24 9 63 -4 140 -46z m58 44 c65 -12 104 -40 104 -75 0 -35 -17 -38 -53
-8 -17 15 -63 42 -102 60 -61 28 -66 33 -39 33 17 1 57 -4 90 -10z m1173 7
c-11 -9 -69 -14 -69 -6 0 6 17 10 37 10 20 0 34 -2 32 -4z m-1859 -31 c0 -2
-37 -15 -81 -29 -45 -14 -89 -32 -99 -41 -12 -11 -31 -15 -57 -13 l-38 3 66
32 c67 33 209 66 209 48z m469 -30 c57 -28 101 -77 101 -111 0 -31 -6 -30 -63
6 -50 31 -72 37 -82 20 -9 -15 -36 -12 -55 5 -9 8 -41 28 -70 44 -52 29 -53
30 -30 39 14 5 32 12 40 15 38 14 112 6 159 -18z m467 -7 c138 -51 266 -172
338 -320 54 -111 76 -210 76 -346 0 -177 -29 -292 -143 -572 -30 -74 -70 -181
-88 -237 -32 -98 -35 -103 -61 -103 -15 0 -28 5 -28 11 0 6 38 125 84 263 47
138 91 286 99 329 17 94 7 89 -18 -8 -10 -38 -47 -144 -83 -235 -36 -91 -78
-208 -92 -260 l-27 -95 -59 -6 c-33 -4 -94 -9 -137 -12 -71 -5 -78 -4 -72 11
7 18 67 224 89 307 23 84 27 105 18 105 -4 0 -29 -64 -55 -142 -27 -79 -63
-175 -81 -214 l-34 -71 -172 -8 c-94 -4 -176 -3 -180 1 -5 5 -18 70 -31 144
-12 74 -26 140 -31 145 -9 10 -7 -13 17 -192 6 -51 11 -94 9 -95 -1 -2 -67 -2
-146 0 l-143 3 -29 72 c-16 40 -66 144 -111 232 -101 197 -138 292 -164 422
-25 123 -28 299 -6 405 17 81 69 195 113 248 27 31 32 33 54 23 14 -6 47 -14
74 -18 88 -11 92 -14 134 -75 22 -33 45 -60 49 -60 5 0 11 11 15 24 7 30 68
70 137 90 43 13 64 14 111 6 76 -14 135 -35 179 -65 l36 -23 11 51 c6 29 14
67 17 86 l7 34 80 -6 c63 -4 85 -10 103 -27 32 -30 40 -10 16 39 -20 38 -20
40 -2 63 27 34 34 64 21 89 -11 20 -10 21 22 14 18 -4 56 -16 84 -27z m769 12
c18 -19 17 -21 -33 -71 -93 -93 -168 -225 -226 -398 -33 -98 -46 -110 -46 -39
0 43 74 248 127 351 25 48 43 91 40 94 -19 19 57 83 99 83 11 0 29 -9 39 -20z
m216 -6 c12 -14 11 -16 -5 -13 -11 2 -21 10 -24 17 -5 17 13 15 29 -4z m-1813
0 c22 -6 21 -8 -20 -50 -23 -23 -46 -40 -50 -38 -4 3 -18 -1 -30 -7 -27 -15
-138 -24 -138 -12 0 12 60 68 89 83 53 27 105 35 149 24z m139 -25 c44 -16
116 -80 104 -92 -6 -6 -20 -6 -42 2 -18 6 -37 7 -43 2 -19 -14 -52 -19 -70 -9
-12 7 -22 5 -34 -5 -9 -8 -32 -22 -49 -31 -28 -14 -33 -14 -33 -2 0 8 -2 21
-6 29 -8 21 44 77 91 98 48 22 46 22 82 8z m1826 -65 c-7 -19 -23 -7 -23 18 0
17 3 18 14 8 8 -6 12 -18 9 -26z m67 -14 c0 -8 -11 -37 -24 -65 l-23 -50 -10
35 c-7 27 -6 36 4 38 7 2 13 10 13 17 0 8 5 26 11 42 8 22 12 24 19 13 6 -8
10 -22 10 -30z m-1522 18 c14 -14 16 -28 2 -28 -5 0 -14 9 -20 20 -12 22 -1
27 18 8z m-801 -32 c1 -1 -25 -35 -57 -75 -117 -147 -153 -259 -153 -471 0
-151 17 -256 64 -384 25 -69 53 -125 176 -356 27 -51 83 -176 83 -186 0 -2 -9
-4 -20 -4 -11 0 -20 3 -20 8 0 4 -26 6 -58 4 l-58 -4 -58 119 c-31 65 -84 164
-117 220 -33 56 -73 132 -90 169 -16 37 -32 65 -34 62 -8 -8 34 -122 74 -199
21 -41 70 -136 110 -212 39 -76 71 -143 71 -148 0 -5 -18 -9 -39 -9 -46 0 -58
13 -164 175 -130 200 -206 384 -228 551 -19 154 20 352 97 492 47 84 138 179
215 225 62 37 66 37 134 31 39 -4 71 -7 72 -8z m-937 -116 c0 -12 -36 -31 -44
-23 -3 3 -6 25 -6 47 l1 41 24 -28 c14 -15 25 -32 25 -37z m65 -51 c25 -30 25
-32 8 -53 -10 -11 -11 -15 -3 -8 24 21 36 14 55 -30 11 -24 32 -62 48 -86 15
-23 25 -47 21 -54 -4 -6 -3 -8 3 -5 15 9 83 -41 94 -69 13 -37 12 -40 -23 -55
-48 -19 -104 -61 -114 -84 -17 -37 -46 -24 -83 39 l-35 59 23 18 c31 25 38 24
56 -11 9 -16 18 -30 21 -30 2 0 -2 13 -11 30 -21 40 -20 44 20 66 19 10 35 23
35 27 0 5 -10 3 -22 -5 -13 -8 -34 -21 -48 -29 -14 -8 -27 -17 -30 -21 -3 -3
-17 -9 -32 -13 -23 -6 -29 -2 -42 24 -26 49 -20 65 33 99 27 18 54 32 60 32 6
0 11 5 11 10 0 14 -12 12 -38 -6 -13 -9 -29 -13 -37 -10 -8 3 -14 2 -14 -2 6
-37 -35 -46 -45 -9 -11 43 -7 67 13 67 11 0 22 -6 24 -12 3 -7 6 -3 6 9 1 12
-3 25 -9 28 -17 11 -11 43 12 59 12 9 17 16 11 16 -7 0 -15 -4 -18 -10 -12
-20 -25 -9 -25 20 0 25 4 30 24 30 15 0 34 -12 51 -31z m-77 -47 c11 -45 0
-66 -17 -33 -13 24 -15 99 -2 86 4 -6 13 -29 19 -53z m3592 -50 c0 -20 -5 -44
-10 -52 -7 -11 -10 2 -10 43 0 36 4 56 10 52 6 -3 10 -23 10 -43z m-595 -250
c22 -11 67 -27 100 -37 33 -10 67 -20 75 -22 11 -4 8 -8 -9 -14 -70 -27 -227
49 -298 145 -43 57 -23 59 35 4 32 -31 76 -65 97 -76z m-401 -8 c8 -21 -10
-88 -28 -103 -11 -9 -15 -8 -20 5 -5 14 8 87 21 107 7 12 21 8 27 -9z m-2254
-43 c11 -27 10 -33 -9 -57 -22 -28 -83 -74 -98 -74 -8 0 -47 99 -41 105 17 14
88 54 104 57 26 6 29 3 44 -31z m-140 -97 c11 -25 20 -50 20 -55 0 -21 -29 -7
-54 26 -25 33 -26 35 -9 55 10 11 19 20 21 20 1 0 12 -21 22 -46z m171 -48 c2
-72 0 -81 -21 -98 -12 -10 -28 -18 -35 -18 -12 0 -75 92 -75 110 0 5 15 17 33
29 18 11 43 31 57 46 13 14 27 22 31 18 4 -5 9 -44 10 -87z m2600 58 c6 -8 10
-16 8 -18 -7 -7 -72 29 -77 41 -5 17 52 -3 69 -23z m-2721 -133 c5 -11 10 -25
10 -32 0 -18 -27 7 -33 31 -7 26 9 26 23 1z m140 -63 c6 -24 15 -56 20 -72 8
-23 7 -31 -8 -42 -9 -7 -20 -14 -24 -14 -4 0 -22 28 -39 61 l-31 62 29 23 c15
13 31 23 35 24 4 0 12 -19 18 -42z m-111 -4 c-14 -18 -24 -11 -15 11 3 9 11
13 16 10 8 -5 7 -11 -1 -21z m-56 -8 c6 -15 -74 -76 -98 -76 -6 0 -19 15 -29
33 -9 17 -14 23 -10 12 18 -53 16 -73 -6 -80 -27 -9 -40 7 -40 50 0 41 9 50
55 63 61 15 122 15 128 -2z m106 -63 c17 -31 31 -60 31 -64 0 -13 -71 -52 -79
-43 -4 5 -17 22 -29 38 -12 16 -22 25 -22 21 0 -5 11 -23 25 -41 l25 -33 -46
-20 c-26 -12 -50 -21 -54 -21 -11 0 -50 86 -50 109 0 27 60 73 77 59 10 -8 13
-7 13 4 0 12 50 45 72 47 3 1 20 -25 37 -56z m122 -113 c12 -30 31 -66 41 -79
19 -25 24 -51 9 -51 -5 0 -28 -16 -51 -35 -23 -19 -44 -35 -46 -35 -2 0 -10
13 -18 29 -15 28 -15 29 24 55 49 33 53 43 5 15 -19 -12 -41 -19 -48 -16 -7 3
-24 26 -38 51 l-24 46 30 24 c17 13 41 33 54 45 29 25 32 23 62 -49z m-331 36
c0 -7 11 -34 24 -59 l23 -47 -25 -16 c-30 -20 -36 -14 -61 59 l-20 57 21 14
c23 16 38 13 38 -8z m204 -110 c16 -29 26 -58 22 -65 -4 -6 -1 -11 7 -11 16 0
40 -47 27 -55 -4 -3 -29 -8 -55 -12 -41 -5 -47 -4 -52 16 -3 11 -9 21 -13 21
-12 0 -71 101 -64 111 6 11 75 48 89 49 6 0 23 -24 39 -54z m-114 -62 c18 -25
30 -47 28 -48 -11 -10 -49 -26 -60 -26 -8 0 -23 19 -35 43 l-20 42 21 17 c11
9 24 17 28 18 4 0 21 -21 38 -46z m333 -31 c29 -46 41 -76 27 -68 -6 3 -10 -1
-10 -10 0 -8 -14 -24 -32 -35 -30 -18 -34 -18 -58 -3 -23 15 -24 15 -11 0 7
-9 12 -17 10 -17 -7 0 -114 45 -128 54 -19 12 5 26 46 26 17 0 33 4 35 9 3 8
89 81 95 81 2 0 13 -17 26 -37z m1953 -10 c-11 -11 -19 6 -11 24 8 17 8 17 12
0 3 -10 2 -21 -1 -24z m-2226 -39 c11 -13 9 -19 -13 -41 -26 -26 -27 -26 -47
-8 -26 24 -25 39 3 53 31 15 43 14 57 -4z m2176 -44 c18 0 35 -3 37 -7 7 -12
-37 -125 -48 -124 -5 1 -10 18 -10 39 0 27 -7 43 -24 58 -17 14 -22 26 -17 39
5 14 9 16 18 7 7 -7 27 -12 44 -12z m-1817 -29 c34 -42 38 -60 19 -81 -11 -12
-10 -12 6 0 16 13 20 12 37 -9 25 -31 24 -38 -6 -45 -29 -7 -68 13 -60 31 2 7
-3 13 -11 13 -19 0 -104 57 -104 70 0 5 8 11 19 15 10 3 26 14 36 25 25 27 29
26 64 -19z m-9 -133 c0 -22 -26 -18 -47 8 -32 41 -29 48 12 22 19 -13 35 -26
35 -30z m-1340 1 c59 -26 86 -53 118 -114 26 -48 27 -57 30 -237 2 -104 0
-188 -4 -188 -4 0 -31 8 -61 18 l-53 17 0 123 c0 198 -27 256 -114 250 -33 -2
-44 -9 -63 -36 -28 -43 -37 -120 -24 -204 16 -96 44 -162 111 -258 158 -228
178 -261 208 -341 16 -47 41 -134 55 -194 21 -96 25 -105 30 -75 8 40 129 857
153 1025 24 169 17 155 74 155 27 0 52 -5 55 -10 8 -12 42 -275 146 -1110 11
-91 29 -230 40 -310 10 -80 19 -150 19 -157 0 -12 -107 -39 -117 -30 -7 8 -38
241 -88 667 -60 511 -57 497 -79 325 -10 -77 -44 -324 -77 -550 -33 -225 -62
-429 -66 -452 -6 -46 -3 -44 -105 -69 -27 -6 -28 -5 -28 36 l0 43 -30 -41
c-51 -71 -163 -120 -245 -107 -62 9 -119 51 -152 109 l-28 51 -3 288 c-2 166
1 287 6 287 5 0 34 -27 65 -59 l57 -60 0 -191 c0 -139 4 -200 14 -224 27 -65
122 -74 181 -16 48 47 65 112 65 249 0 226 -52 377 -203 591 -90 128 -128 196
-164 286 -24 63 -27 81 -27 209 -1 113 3 149 17 187 20 51 92 124 130 131 54
11 115 5 157 -14z m4624 -31 c26 -148 222 -1786 214 -1794 -2 -2 -32 1 -66 7
-71 13 -62 -8 -87 204 -8 72 -26 229 -40 350 -14 121 -32 281 -41 355 -24 206
-44 353 -49 359 -3 2 -5 -16 -5 -40 0 -24 -7 -96 -15 -159 -35 -294 -104 -871
-110 -929 l-7 -63 -32 7 c-17 3 -46 9 -63 12 -18 3 -33 10 -33 15 0 13 48 389
106 823 24 187 51 390 59 450 8 61 23 180 34 265 12 85 21 158 21 163 0 4 24
7 54 7 53 0 54 -1 60 -32z m-471 -78 c23 -12 54 -33 69 -47 71 -67 110 -247
90 -419 -24 -207 -77 -341 -172 -436 l-58 -57 80 -312 c43 -171 77 -314 74
-316 -3 -3 -31 1 -63 8 l-58 14 -74 273 c-41 149 -78 272 -83 272 -4 0 -8
-120 -8 -266 l0 -266 -27 6 c-16 3 -45 8 -66 12 l-37 6 2 772 3 771 65 6 c114
12 216 3 263 -21z m-3363 0 c9 -6 35 -102 76 -287 34 -153 64 -271 68 -263 6
18 61 205 114 390 l38 135 58 -2 c32 -1 61 -4 64 -7 3 -3 -48 -189 -112 -413
l-117 -408 1 -328 c0 -254 -3 -329 -12 -332 -7 -2 -34 -5 -60 -8 l-48 -5 0
340 0 340 -55 241 c-30 133 -70 310 -90 392 -20 83 -39 169 -42 192 l-6 42 54
-6 c30 -3 61 -9 69 -13z m2771 -130 c10 -69 23 -161 28 -205 18 -138 51 -383
76 -565 13 -96 31 -229 40 -295 9 -66 22 -164 29 -218 7 -54 10 -100 6 -102
-7 -4 -110 12 -116 18 -2 1 -23 167 -48 367 -69 547 -87 674 -97 684 -5 6 -9
-2 -9 -20 0 -42 -127 -994 -133 -1000 -3 -3 -29 -2 -59 3 -38 6 -52 13 -51 23
48 342 201 1384 208 1418 5 21 10 23 57 20 l52 -3 17 -125z m-401 -610 l0
-710 -39 0 c-21 0 -43 6 -49 13 -6 7 -45 134 -87 282 -103 361 -185 637 -196
655 -5 9 -9 -181 -9 -459 l0 -473 -57 7 c-32 4 -59 8 -61 10 -1 1 0 309 4 684
l7 681 48 0 48 0 51 -162 c28 -90 60 -190 71 -223 10 -33 48 -159 83 -280 l64
-220 4 440 c1 242 7 446 11 453 5 7 29 12 58 12 l49 0 0 -710z m-1643 680
c102 -62 136 -224 136 -630 -1 -501 -53 -713 -181 -749 -73 -21 -135 24 -177
126 -41 102 -56 217 -62 468 -11 461 33 711 135 780 45 31 104 33 149 5z m546
-19 c5 -5 7 -30 5 -57 l-3 -49 -107 3 -108 2 0 -190 c0 -172 2 -191 18 -198 9
-4 48 -16 86 -27 38 -11 71 -24 73 -30 1 -5 -38 -52 -87 -104 l-90 -94 0 -247
0 -248 110 6 110 5 0 -51 c0 -28 -4 -53 -8 -56 -4 -2 -81 -8 -170 -12 l-162
-7 0 680 c0 374 3 683 8 688 9 10 314 -3 325 -14z m384 -16 c102 -51 146 -148
147 -320 1 -201 -56 -367 -159 -465 l-54 -50 71 -223 c94 -295 91 -267 30
-267 -28 0 -54 5 -59 13 -6 6 -41 106 -79 220 -51 155 -71 202 -76 185 -3 -13
-6 -112 -7 -220 l-1 -198 -55 0 -55 0 0 675 0 675 123 0 c112 0 128 -2 174
-25z"/>
<path d="M3262 4094 c-12 -8 -22 -22 -22 -30 0 -13 4 -13 30 1 33 17 77 19
114 5 20 -7 26 -6 26 4 0 33 -108 48 -148 20z"/>
<path d="M2801 3994 c-40 -33 -30 -52 11 -22 22 15 46 22 80 22 48 0 62 8 32
20 -38 15 -93 6 -123 -20z"/>
<path d="M3275 3934 c-25 -27 -34 -74 -14 -74 6 0 22 9 36 20 27 21 96 27 123
11 18 -12 31 -5 24 14 -10 25 -69 55 -108 55 -27 0 -44 -7 -61 -26z"/>
<path d="M2834 3856 c-25 -25 -34 -43 -34 -67 l0 -32 23 21 c12 11 39 28 60
37 33 14 41 14 73 0 44 -18 44 -18 44 -2 -1 16 -31 51 -57 66 -39 20 -73 13
-109 -23z"/>
<path d="M3385 3761 c-3 -6 3 -15 12 -20 16 -10 15 -13 -12 -36 -97 -80 -333
-126 -487 -94 -29 6 -58 18 -65 26 -11 14 -15 14 -37 -1 -33 -21 -60 -62 -50
-77 5 -8 12 -4 25 12 10 13 19 22 21 19 2 -3 25 -50 52 -105 63 -127 133 -201
221 -234 181 -68 317 71 356 364 14 103 21 116 47 92 10 -9 21 -14 25 -11 12
13 -15 46 -48 60 -40 16 -52 17 -60 5z m6 -110 c-31 -57 -126 -106 -238 -123
-122 -18 -307 16 -321 59 -2 9 6 9 35 1 55 -16 235 -13 323 6 41 9 100 29 130
44 69 36 84 39 71 13z"/>
<path d="M3055 3210 c34 -38 119 -46 146 -14 9 11 2 12 -39 7 -36 -4 -59 -1
-82 11 -43 21 -47 20 -25 -4z"/>
<path d="M1510 3941 c0 -6 4 -13 10 -16 6 -3 7 1 4 9 -7 18 -14 21 -14 7z"/>
<path d="M4680 2291 c0 -426 -5 -409 89 -325 63 56 92 105 123 204 19 63 23
97 23 210 0 121 -2 140 -23 182 -33 67 -71 91 -149 96 l-63 4 0 -371z"/>
<path d="M2151 2562 c-25 -47 -33 -147 -38 -484 -5 -355 2 -479 30 -566 17
-52 47 -51 65 2 36 110 34 944 -2 1030 -16 39 -40 47 -55 18z"/>
<path d="M2993 2574 c-6 -17 6 -626 12 -633 11 -10 70 26 100 62 72 84 105
186 105 328 0 142 -31 213 -107 245 -45 19 -102 18 -110 -2z"/>
<path d="M4215 5414 c-67 -35 -97 -77 -156 -221 -67 -163 -90 -243 -70 -243
49 0 259 119 334 189 85 79 105 146 67 220 -32 63 -111 88 -175 55z"/>
<path d="M1474 5326 c-75 -34 -98 -147 -46 -224 50 -75 162 -156 291 -211 92
-39 103 -40 95 -3 -13 49 -126 325 -150 363 -46 73 -125 105 -190 75z"/>
<path d="M5524 4220 c-74 -37 -170 -120 -162 -141 16 -42 255 -52 331 -15 39
19 67 59 67 97 0 11 -15 36 -34 55 -30 30 -40 34 -88 34 -41 0 -70 -8 -114
-30z"/>
<path d="M388 3649 c-15 -6 -34 -26 -43 -46 -15 -31 -15 -39 -3 -71 28 -75
120 -105 243 -79 78 17 182 53 190 68 4 5 -51 37 -120 71 -133 65 -206 81
-267 57z"/>
<path d="M0 1779 c0 -18 2 -19 15 -9 15 12 12 30 -6 30 -5 0 -9 -10 -9 -21z"/>
<path d="M5953 1104 c-3 -8 -1 -20 6 -27 8 -8 11 -4 11 16 0 30 -7 35 -17 11z"/>
<path d="M1641 535 c-108 -58 -152 -116 -127 -166 21 -43 75 -38 124 12 31 32
76 115 88 164 8 34 -6 32 -85 -10z"/>
<path d="M5621 437 c-8 -10 -4 -22 17 -47 24 -28 35 -33 73 -34 39 -1 44 2 47
22 3 19 -6 26 -53 47 -64 29 -69 29 -84 12z"/>
<path d="M2909 327 c-56 -79 -63 -192 -14 -234 14 -13 31 -23 36 -23 20 0 58
49 64 83 9 45 -17 137 -48 171 l-22 26 -16 -23z"/>
</g>
</svg>
